<svg width="24" height="24" viewBox="0 0 24 24" fill="none" xmlns="http://www.w3.org/2000/svg">
<path d="M20.0307 12.2194C20.1004 12.289 20.1557 12.3717 20.1935 12.4628C20.2312 12.5538 20.2506 12.6514 20.2506 12.75C20.2506 12.8486 20.2312 12.9461 20.1935 13.0372C20.1557 13.1282 20.1004 13.211 20.0307 13.2806L12.5307 20.7806C12.461 20.8503 12.3783 20.9057 12.2873 20.9434C12.1962 20.9812 12.0986 21.0006 12.0001 21.0006C11.9015 21.0006 11.8039 20.9812 11.7128 20.9434C11.6218 20.9057 11.5391 20.8503 11.4694 20.7806L3.96943 13.2806C3.8287 13.1399 3.74963 12.949 3.74963 12.75C3.74963 12.551 3.8287 12.3601 3.96943 12.2194C4.11016 12.0786 4.30103 11.9996 4.50005 11.9996C4.69907 11.9996 4.88995 12.0786 5.03068 12.2194L12.0001 19.1897L18.9694 12.2194C19.0391 12.1496 19.1218 12.0943 19.2128 12.0566C19.3039 12.0188 19.4015 11.9994 19.5001 11.9994C19.5986 11.9994 19.6962 12.0188 19.7873 12.0566C19.8783 12.0943 19.961 12.1496 20.0307 12.2194ZM11.4694 13.2806C11.5391 13.3503 11.6218 13.4057 11.7128 13.4434C11.8039 13.4812 11.9015 13.5006 12.0001 13.5006C12.0986 13.5006 12.1962 13.4812 12.2873 13.4434C12.3783 13.4057 12.461 13.3503 12.5307 13.2806L20.0307 5.78061C20.1714 5.63988 20.2505 5.44901 20.2505 5.24999C20.2505 5.05097 20.1714 4.8601 20.0307 4.71936C19.8899 4.57863 19.6991 4.49957 19.5001 4.49957C19.301 4.49957 19.1102 4.57863 18.9694 4.71936L12.0001 11.6897L5.03068 4.71936C4.88995 4.57863 4.69907 4.49957 4.50005 4.49957C4.30103 4.49957 4.11016 4.57863 3.96943 4.71936C3.8287 4.8601 3.74963 5.05097 3.74963 5.24999C3.74963 5.44901 3.8287 5.63988 3.96943 5.78061L11.4694 13.2806Z" fill="black"/>
</svg>
