<svg width="372" height="372" viewBox="0 0 372 372" fill="none" xmlns="http://www.w3.org/2000/svg">
<rect width="372" height="372" fill="white"/>
<path d="M109.13 228.08C108.09 228.08 107.41 227.44 107.09 226.16L89.57 154.64C89.49 154.24 89.29 154.04 88.97 154.04C88.65 154.04 88.41 154.24 88.25 154.64L73.97 216.68C73.41 218.92 73.37 220.64 73.85 221.84C74.41 222.96 75.65 223.68 77.57 224L79.01 224.24C80.05 224.32 80.49 224.8 80.33 225.68C80.09 226.56 79.37 227 78.17 227H61.01C59.81 227 59.33 226.56 59.57 225.68C59.73 224.8 60.33 224.32 61.37 224.24L63.05 224C65.21 223.68 66.81 222.96 67.85 221.84C68.89 220.64 69.69 218.92 70.25 216.68L85.97 148.52C86.37 146.84 86.37 145.72 85.97 145.16C85.57 144.6 84.49 144.16 82.73 143.84L80.09 143.36C79.05 143.12 78.65 142.64 78.89 141.92C79.05 141.04 79.73 140.6 80.93 140.6H92.57C94.57 140.6 95.77 141.48 96.17 143.24L111.29 205.4C111.45 205.96 111.69 206.24 112.01 206.24C112.41 206.24 112.65 205.96 112.73 205.4L125.33 150.92C125.97 148.36 125.97 146.6 125.33 145.64C124.69 144.6 123.69 143.96 122.33 143.72L120.29 143.36C119.25 143.12 118.85 142.64 119.09 141.92C119.25 141.04 119.93 140.6 121.13 140.6H138.29C139.49 140.6 140.01 141.04 139.85 141.92C139.53 142.8 138.89 143.28 137.93 143.36L136.25 143.6C134.09 143.92 132.49 144.6 131.45 145.64C130.49 146.6 129.69 148.36 129.05 150.92L111.89 225.44C111.49 227.2 110.57 228.08 109.13 228.08ZM139.163 228.08C134.203 228.08 130.283 226.04 127.403 221.96C124.523 217.8 123.083 212.2 123.083 205.16C123.083 199.96 123.923 194.96 125.603 190.16C127.283 185.36 129.483 181.08 132.203 177.32C135.003 173.56 138.083 170.6 141.443 168.44C144.883 166.2 148.323 165.08 151.763 165.08C156.723 165.08 160.643 167.12 163.523 171.2C166.403 175.28 167.843 180.88 167.843 188C167.843 193.2 167.003 198.2 165.323 203C163.643 207.8 161.403 212.08 158.603 215.84C155.883 219.6 152.803 222.6 149.363 224.84C146.003 227 142.603 228.08 139.163 228.08ZM138.923 225.2C141.483 225.2 143.963 223.96 146.363 221.48C148.843 219 151.083 215.72 153.083 211.64C155.083 207.56 156.683 203.04 157.883 198.08C159.083 193.04 159.683 188 159.683 182.96C159.683 172.96 157.083 167.96 151.883 167.96C149.403 167.96 146.923 169.2 144.443 171.68C141.963 174.08 139.723 177.32 137.723 181.4C135.803 185.48 134.243 190.04 133.043 195.08C131.843 200.04 131.243 205.04 131.243 210.08C131.243 220.16 133.803 225.2 138.923 225.2ZM154.05 251.6C153.01 251.6 152.49 251.16 152.49 250.28C152.49 249.48 153.13 249 154.41 248.84L156.09 248.6C157.69 248.36 158.89 247.88 159.69 247.16C160.41 246.52 160.97 245.32 161.37 243.56L177.33 174.68C177.49 174.04 177.37 173.56 176.97 173.24C176.65 172.84 176.17 172.84 175.53 173.24C174.73 173.64 173.97 174.08 173.25 174.56C172.53 174.96 171.81 175.4 171.09 175.88C170.37 176.36 169.77 176.52 169.29 176.36C168.81 176.12 168.57 175.72 168.57 175.16C168.57 174.6 168.97 174.04 169.77 173.48C172.01 171.96 174.33 170.64 176.73 169.52C178.09 168.88 178.93 167.84 179.25 166.4L180.81 159.56C181.21 157.88 182.25 157.04 183.93 157.04H186.09C187.05 157.04 187.77 157.32 188.25 157.88C188.73 158.44 188.85 159.24 188.61 160.28L187.77 163.76C187.53 165.12 188.05 165.68 189.33 165.44C191.17 165.2 192.93 165.08 194.61 165.08C200.53 165.08 205.37 166.76 209.13 170.12C212.89 173.48 214.77 178.64 214.77 185.6C214.77 191.04 213.77 196.32 211.77 201.44C209.77 206.48 207.13 211 203.85 215C200.57 219 196.97 222.2 193.05 224.6C189.13 226.92 185.21 228.08 181.29 228.08C179.13 228.08 177.09 227.64 175.17 226.76C173.97 226.2 173.25 226.52 173.01 227.72L169.41 243.56C169.01 245.32 169.01 246.48 169.41 247.04C169.89 247.6 170.89 248 172.41 248.24L175.53 248.72C176.97 248.96 177.69 249.44 177.69 250.16C177.69 251.12 177.01 251.6 175.65 251.6H154.05ZM176.37 213.2C174.93 221.12 176.65 225.08 181.53 225.08C184.33 225.08 187.17 223.92 190.05 221.6C192.93 219.2 195.61 216.04 198.09 212.12C200.57 208.12 202.57 203.64 204.09 198.68C205.61 193.72 206.37 188.64 206.37 183.44C206.37 178.08 205.21 174.24 202.89 171.92C200.57 169.52 197.17 168.32 192.69 168.32C188.69 168.32 186.41 169.68 185.85 172.4L176.37 213.2ZM220.674 228.08C217.794 228.08 215.554 226.84 213.954 224.36C212.354 221.88 211.554 218.24 211.554 213.44C211.554 208.88 212.194 204.32 213.474 199.76C214.754 195.12 216.514 190.72 218.754 186.56C220.994 182.4 223.514 178.72 226.314 175.52C229.194 172.32 232.194 169.8 235.314 167.96C238.514 166.04 241.674 165.08 244.794 165.08C246.314 165.08 247.754 165.4 249.114 166.04C250.474 166.6 251.594 167.52 252.474 168.8C252.954 169.52 253.434 169.88 253.914 169.88C254.394 169.88 254.874 169.52 255.354 168.8C256.234 167.52 256.954 166.72 257.514 166.4C258.074 166 258.594 165.8 259.074 165.8C260.114 165.8 260.514 166.36 260.274 167.48L249.594 213.44C248.394 218.64 249.194 221.24 251.994 221.24C253.834 221.24 255.474 220 256.914 217.52C258.434 215.04 259.954 211.2 261.474 206C261.714 205.12 262.234 204.68 263.034 204.68C263.594 204.68 263.954 204.92 264.114 205.4C264.274 205.88 264.274 206.44 264.114 207.08C262.594 214.6 260.554 220 257.994 223.28C255.434 226.48 252.354 228.08 248.754 228.08C245.634 228.08 243.394 226.76 242.034 224.12C240.754 221.48 240.634 217.88 241.674 213.32L243.234 206.72C243.394 206.16 243.274 205.84 242.874 205.76C242.554 205.68 242.274 205.88 242.034 206.36C237.634 214.44 233.714 220.08 230.274 223.28C226.914 226.48 223.714 228.08 220.674 228.08ZM223.674 221.96C225.594 221.96 227.714 220.8 230.034 218.48C232.354 216.16 234.634 213.16 236.874 209.48C239.194 205.8 241.314 201.84 243.234 197.6C245.154 193.36 246.674 189.28 247.794 185.36C248.994 181.44 249.594 178.12 249.594 175.4C249.594 170.52 247.874 168.08 244.434 168.08C242.354 168.08 240.154 169.04 237.834 170.96C235.514 172.8 233.274 175.32 231.114 178.52C229.034 181.72 227.114 185.36 225.354 189.44C223.674 193.44 222.314 197.64 221.274 202.04C220.234 206.36 219.714 210.6 219.714 214.76C219.714 217.56 220.034 219.48 220.674 220.52C221.394 221.48 222.394 221.96 223.674 221.96ZM268.51 228.2C265.87 228.2 263.99 227.24 262.87 225.32C261.75 223.32 261.71 220.08 262.75 215.6L277.99 150.2C278.39 148.76 278.39 147.76 277.99 147.2C277.67 146.64 276.95 146.32 275.83 146.24L272.23 145.88C271.03 145.8 270.51 145.28 270.67 144.32C270.83 143.6 271.39 143.16 272.35 143C275.23 142.52 277.79 141.96 280.03 141.32C282.27 140.6 284.07 139.68 285.43 138.56C286.07 138.08 286.67 137.84 287.23 137.84C288.19 137.84 288.55 138.44 288.31 139.64L270.55 215.72C270.15 217.48 270.07 218.88 270.31 219.92C270.63 220.88 271.39 221.36 272.59 221.36C274.03 221.36 275.59 220.32 277.27 218.24C279.03 216.08 280.99 212.04 283.15 206.12C283.47 205.08 284.03 204.56 284.83 204.56C286.03 204.56 286.35 205.28 285.79 206.72C284.11 212.16 282.23 216.48 280.15 219.68C278.15 222.8 276.15 225 274.15 226.28C272.15 227.56 270.27 228.2 268.51 228.2ZM288.698 228.08C287.018 228.08 285.658 227.56 284.618 226.52C283.578 225.4 283.058 224.04 283.058 222.44C283.058 220.36 283.778 218.68 285.218 217.4C286.658 216.12 288.178 215.48 289.778 215.48C291.378 215.48 292.698 216.04 293.738 217.16C294.858 218.2 295.418 219.52 295.418 221.12C295.418 223.2 294.698 224.88 293.258 226.16C291.818 227.44 290.298 228.08 288.698 228.08Z" fill="black"/>
</svg>
